<svg width="180" height="180" viewBox="0 0 180 180" fill="none" xmlns="http://www.w3.org/2000/svg">
  <rect width="180" height="180" rx="40" fill="#C9F99D"/>
  <g transform="translate(34 46) scale(3.05)">
    <g clip-path="url(#clip0_114_6453)">
      <path d="M6.56965 8.78512C8.9956 8.78512 10.9622 6.8185 10.9622 4.39256C10.9622 1.96662 8.9956 0 6.56965 0C4.14371 0 2.17709 1.96662 2.17709 4.39256C2.17709 6.8185 4.14371 8.78512 6.56965 8.78512Z" fill="#111111"/>
      <path d="M30.1557 8.78512C32.5817 8.78512 34.5483 6.8185 34.5483 4.39256C34.5483 1.96662 32.5817 0 30.1557 0C27.7298 0 25.7632 1.96662 25.7632 4.39256C25.7632 6.8185 27.7298 8.78512 30.1557 8.78512Z" fill="#111111"/>
      <path d="M7.99268 15.1761C7.99268 15.1761 2.47109 15.7343 2.34327 20.8256C2.21546 25.9168 5.92634 26.7093 8.11623 26.5985C16.2751 26.3429 21.3876 15.6917 28.5964 15.1761C33.5854 15.2699 34.3821 19.164 34.3821 20.9619C34.3821 22.7598 33.006 26.4238 28.9202 26.4238" stroke="#111111" stroke-width="4.68653" stroke-miterlimit="10" stroke-linecap="round"/>
    </g>
  </g>
  <defs>
    <clipPath id="clip0_114_6453">
      <rect width="36.7296" height="28.95" fill="white"/>
    </clipPath>
  </defs>
</svg>
