<svg width="39" height="37" viewBox="0 0 39 37" fill="none" xmlns="http://www.w3.org/2000/svg">
<path d="M17.9512 1.22675C18.5342 0.258016 19.9385 0.258015 20.5215 1.22675L25.6123 9.68573C25.9614 10.2657 26.531 10.6795 27.1904 10.8322L36.8096 13.0598C37.9108 13.315 38.3446 14.6513 37.6035 15.5051L31.1309 22.9611C30.6873 23.4723 30.4698 24.1414 30.5283 24.8156L31.3818 34.6516C31.4796 35.7779 30.3437 36.6041 29.3027 36.1633L20.2119 32.3117C19.5886 32.0476 18.8841 32.0476 18.2607 32.3117L9.16992 36.1633C8.12893 36.6041 6.99307 35.7779 7.09082 34.6516L7.94434 24.8156C8.00281 24.1414 7.78532 23.4723 7.3418 22.9611L0.869141 15.5051C0.128049 14.6513 0.561847 13.315 1.66309 13.0598L11.2822 10.8322C11.9417 10.6795 12.5113 10.2657 12.8604 9.68573L17.9512 1.22675Z" fill="#DADADA" stroke="#ACACAC"/>
</svg>
