<svg width="264" height="227" viewBox="0 0 264 227" fill="none" xmlns="http://www.w3.org/2000/svg">
<path d="M115.429 163.564C107.714 154.528 100.157 146.028 95.8031 148.049C92.1241 141.158 88.4898 135.577 85.1485 137.955C82.1894 140.001 82.7008 142.712 84.2151 145.621C86.4592 149.27 87.9338 151.028 88.7033 151.043C83.3611 155.084 83.0434 160.233 87.2089 166.37C89.4232 168.966 91.9404 169.89 94.686 169.547C99.2587 175.118 103.906 179.045 108.707 179.829C104.864 191.03 103.012 201.948 103.474 212.538C96.5826 216.088 92.3277 219.479 98.6133 222.259C110.266 223.694 123.621 225.849 127.4 223.942L131.888 217.776C135.14 215.254 137.553 214.747 138.804 217.026L141.232 224.876C146.256 226.594 159.667 225.184 172.635 223.942C178.96 223.63 178.677 220.244 171.14 213.476C170.381 207.951 169.388 203.09 167.963 199.456C175.008 197.807 177.699 192.544 176.373 183.94C175.291 175.52 170.167 167.561 159.736 160.203L115.439 163.569L115.429 163.564Z" fill="white"/>
<path d="M148.739 226.663C145.402 226.663 142.692 226.425 140.899 225.809L140.423 225.645L137.876 217.413C137.508 216.783 137.121 216.639 136.858 216.584C136.207 216.445 134.936 216.669 132.598 218.466L128.055 224.712L127.842 224.821C124.361 226.579 114.392 225.288 103.836 223.917C102.039 223.684 100.242 223.451 98.4841 223.237L98.3402 223.217L98.2061 223.158C95.7882 222.09 94.5917 220.824 94.547 219.29C94.4824 217.066 96.7812 214.921 102.451 211.942C102.104 202.052 103.772 191.502 107.406 180.564C103.27 179.492 98.9508 176.21 94.2541 170.585C91.2702 170.788 88.6487 169.592 86.4492 167.015L86.3847 166.93C83.4107 162.551 81.2361 156.365 87.0053 151.157C86.1911 150.372 85.0591 148.898 83.366 146.147L83.3313 146.088C82.0057 143.541 80.69 139.837 84.5824 137.151C85.5208 136.481 86.5485 136.262 87.6259 136.515C90.4807 137.186 93.1667 141.113 96.2797 146.857C101.041 145.849 107.719 153.039 115.851 162.541L160.004 159.19L160.297 159.394C170.445 166.553 176.185 174.77 177.347 183.816C178.702 192.609 175.986 198.1 169.259 200.136C170.381 203.338 171.299 207.563 172.059 212.98C176.815 217.294 178.677 220.303 177.922 222.438C177.381 223.972 175.663 224.786 172.67 224.935L170.768 225.119C162.571 225.908 154.667 226.668 148.734 226.668L148.739 226.663ZM142.016 224.076C146.927 225.417 158.947 224.255 170.584 223.138L172.531 222.949C174.556 222.845 175.822 222.418 176.056 221.768C176.215 221.316 176.289 219.429 170.47 214.211L170.197 213.968L170.147 213.605C169.318 207.553 168.296 203.045 167.029 199.813L166.612 198.745L167.73 198.482C174.144 196.983 176.646 192.271 175.385 184.084C174.288 175.554 169.075 168.077 159.448 161.211L115.002 164.587L114.675 164.205C108.871 157.413 100.103 147.145 96.2202 148.948L95.3662 149.345L94.9243 148.516C93.415 145.691 89.88 139.072 87.1741 138.437C86.6627 138.318 86.206 138.422 85.7244 138.765C83.6341 140.209 83.4554 141.997 85.0789 145.13C87.6259 149.265 88.5693 149.94 88.7877 150.05L91.578 150.109L89.2941 151.837C84.5229 155.442 84.0959 159.999 87.9933 165.769C89.88 167.963 92.0298 168.882 94.5569 168.564L95.0981 168.494L95.4456 168.916C100.386 174.934 104.775 178.181 108.856 178.846L110.018 179.035L109.635 180.147C105.753 191.467 104.01 202.35 104.452 212.493L104.482 213.129L103.916 213.422C97.7593 216.594 96.4982 218.337 96.528 219.236C96.5478 219.881 97.377 220.611 98.8714 221.291C100.584 221.504 102.337 221.728 104.085 221.956C113.22 223.138 123.542 224.473 126.734 223.148L131.153 217.076L131.262 216.991C133.715 215.09 135.676 214.32 137.255 214.648C138.273 214.856 139.082 215.497 139.658 216.55L139.737 216.733L142.011 224.081L142.016 224.076Z" fill="#4E5E84"/>
<path d="M109.859 155.225C102.62 159.43 98.4642 166.877 96.6421 176.772C97.8734 178.004 100.435 179.364 105.743 180.987C102.252 188.43 100.063 195.828 101.433 203.111C127.568 209.814 151.4 210.474 171.92 202.441C169.785 194.77 167.476 187.854 164.065 185.779C169.353 185.461 173.553 181.578 176.805 174.573C172.367 167.855 167.099 162.647 160.525 159.822L109.864 155.225H109.859Z" fill="#C5F598"/>
<path d="M138.804 209.322C127.315 209.322 114.829 207.575 101.185 204.074L100.574 203.915L100.455 203.295C99.2785 197.029 100.52 190.113 104.368 181.598C100.038 180.208 97.3472 178.887 95.9421 177.477L95.5747 177.11L95.669 176.599C97.6252 165.994 102.228 158.516 109.362 154.371L109.635 154.212L160.769 158.854L160.913 158.919C167.238 161.634 172.704 166.579 177.63 174.032L177.937 174.493L177.704 174.995C174.705 181.459 170.892 185.297 166.339 186.434C168.896 189.309 170.803 194.72 172.878 202.178L173.116 203.042L172.282 203.369C162.139 207.341 151.038 209.327 138.804 209.327V209.322ZM102.302 202.307C129.371 209.163 151.772 209.009 170.723 201.84C168.767 194.924 166.538 188.445 163.554 186.628L160.843 184.979L164.011 184.791C168.643 184.513 172.565 181.107 175.668 174.662C171.081 167.855 166.041 163.322 160.277 160.805L110.092 156.252C103.667 160.1 99.6161 166.709 97.7245 176.42C99.1345 177.582 101.86 178.768 106.036 180.044L107.133 180.377L106.646 181.415C102.694 189.835 101.344 196.319 102.307 202.312L102.302 202.307Z" fill="#94B872"/>
<path d="M136.585 161.639L127.241 168.833C133.556 179.687 140.149 180.183 147.056 169.489L136.59 161.639H136.585Z" fill="white"/>
<path d="M137.195 178.234C137.141 178.234 137.081 178.234 137.026 178.234C133.298 178.15 129.817 175.236 126.382 169.332L125.945 168.578L136.58 160.391L148.391 169.248L147.89 170.027C144.325 175.553 140.825 178.239 137.2 178.239L137.195 178.234ZM128.541 169.079C131.411 173.771 134.276 176.184 137.071 176.248C139.802 176.313 142.716 174.114 145.705 169.715L136.59 162.878L128.541 169.074V169.079Z" fill="#94B872"/>
<path d="M136.406 170.499C157.394 170.499 174.407 154.492 174.407 134.746C174.407 115.001 157.394 98.9941 136.406 98.9941C115.419 98.9941 98.4048 115.001 98.4048 134.746C98.4048 154.492 115.419 170.499 136.406 170.499Z" fill="white"/>
<path d="M136.406 171.49C114.903 171.49 97.4116 155.007 97.4116 134.745C97.4116 114.483 114.908 98 136.406 98C157.904 98 175.4 114.483 175.4 134.745C175.4 155.007 157.909 171.49 136.406 171.49ZM136.406 99.986C116 99.986 99.3976 115.581 99.3976 134.745C99.3976 153.91 116 169.504 136.406 169.504C156.812 169.504 173.414 153.91 173.414 134.745C173.414 115.581 156.812 99.986 136.406 99.986Z" fill="#4E5E84"/>
<path d="M161.042 144.515C165.429 144.515 168.986 140.959 168.986 136.571C168.986 132.184 165.429 128.627 161.042 128.627C156.655 128.627 153.098 132.184 153.098 136.571C153.098 140.959 156.655 144.515 161.042 144.515Z" fill="#FF7885"/>
<path d="M110.762 144.515C115.149 144.515 118.706 140.959 118.706 136.571C118.706 132.184 115.149 128.627 110.762 128.627C106.375 128.627 102.818 132.184 102.818 136.571C102.818 140.959 106.375 144.515 110.762 144.515Z" fill="#FF7885"/>
<path d="M128.244 146.968C127.226 146.968 125.622 146.744 124.386 145.543C123.348 144.53 122.847 143.095 122.891 141.268C122.991 137.321 126.496 135.921 128.333 135.737C129.018 135.667 129.624 136.164 129.693 136.844C129.763 137.524 129.266 138.13 128.591 138.205C128.263 138.239 125.443 138.641 125.374 141.327C125.344 142.435 125.597 143.254 126.119 143.765C126.858 144.485 128.025 144.505 128.492 144.48C131.337 144.391 133.69 142.355 136.182 140.205C138.605 138.11 141.108 135.95 144.161 135.727H144.216H144.27C148.441 135.806 149.92 138.835 149.92 141.402C149.92 143.656 148.237 146.829 144.494 146.829C143.809 146.829 143.252 146.272 143.252 145.587C143.252 144.902 143.809 144.346 144.494 144.346C146.936 144.346 147.438 142.023 147.438 141.402C147.438 140.24 147.026 138.289 144.275 138.209C142.066 138.393 139.991 140.186 137.801 142.082C135.09 144.426 132.29 146.843 128.591 146.963C128.487 146.968 128.368 146.973 128.239 146.973L128.244 146.968Z" fill="#4E5E84"/>
<path d="M128.943 132.267C130.479 132.267 131.724 131.022 131.724 129.487C131.724 127.951 130.479 126.707 128.943 126.707C127.408 126.707 126.163 127.951 126.163 129.487C126.163 131.022 127.408 132.267 128.943 132.267Z" fill="#4E5E84"/>
<path d="M143.873 132.267C145.409 132.267 146.653 131.022 146.653 129.487C146.653 127.951 145.409 126.707 143.873 126.707C142.338 126.707 141.093 127.951 141.093 129.487C141.093 131.022 142.338 132.267 143.873 132.267Z" fill="#4E5E84"/>
<path d="M133.939 134.857H122.256C121.71 134.857 121.263 134.41 121.263 133.864V129.192C121.263 128.646 121.71 128.199 122.256 128.199C122.802 128.199 123.249 128.646 123.249 129.192V132.871H132.946V129.564C132.946 129.018 133.392 128.571 133.939 128.571H138.611C139.157 128.571 139.604 129.018 139.604 129.564V132.682H149.389V129.748C149.389 129.202 149.836 128.755 150.382 128.755C150.928 128.755 151.375 129.202 151.375 129.748V133.675C151.375 134.221 150.928 134.668 150.382 134.668H138.611C138.064 134.668 137.618 134.221 137.618 133.675V130.557H134.932V133.864C134.932 134.41 134.485 134.857 133.939 134.857Z" fill="#4E5E84"/>
<rect width="264" height="72" rx="36" fill="#C5F598"/>
<path d="M100.228 19.8984V23.5625H102.005V24.6562H100.228V28.9082H98.9287V19.8984H100.228ZM100.747 30.8496V31.9023H92.4619V27.9648H93.7607V30.8496H100.747ZM94.0479 20.7461C95.8936 20.7461 97.3018 22.0039 97.3154 23.7949C97.3018 25.5723 95.8936 26.8438 94.0479 26.8438C92.2021 26.8438 90.7803 25.5723 90.7939 23.7949C90.7803 22.0039 92.2021 20.7461 94.0479 20.7461ZM94.0479 21.8809C92.9268 21.8809 92.0518 22.6602 92.0654 23.7949C92.0518 24.9297 92.9268 25.709 94.0479 25.709C95.1826 25.709 96.0439 24.9297 96.0439 23.7949C96.0439 22.6602 95.1826 21.8809 94.0479 21.8809ZM113.188 19.9121V32.1621H111.944V25.8867H110.372V31.5332H109.155V20.1582H110.372V24.8203H111.944V19.9121H113.188ZM104.575 21.3613V27.8965C105.71 27.8896 106.947 27.8008 108.335 27.5273L108.472 28.6621C106.79 28.9629 105.382 29.0449 104.069 29.0449H103.276V21.3613H104.575ZM120.858 21.9355V22.9883H114.774V21.9355H117.181V20.2676H118.466V21.9355H120.858ZM117.823 23.7266C119.382 23.7266 120.476 24.8887 120.489 26.543C120.476 28.2109 119.382 29.3867 117.823 29.3867C116.292 29.3867 115.157 28.2109 115.171 26.543C115.157 24.8887 116.292 23.7266 117.823 23.7266ZM117.823 24.8066C116.935 24.8066 116.319 25.5312 116.319 26.543C116.319 27.582 116.935 28.2793 117.823 28.2793C118.698 28.2793 119.341 27.582 119.341 26.543C119.341 25.5312 118.698 24.8066 117.823 24.8066ZM125.288 19.9121V32.1621H124.058V26.0781H122.649V31.5879H121.419V20.1855H122.649V25.0117H124.058V19.9121H125.288ZM138.071 26.8164V27.8691H133.095V32.1484H131.823V27.8691H126.901V26.8164H138.071ZM137.019 20.6367V21.6758H133.231C133.252 23.1934 135.139 24.5469 137.456 24.8613L136.978 25.8867C134.968 25.5723 133.231 24.5811 132.493 23.1797C131.734 24.5811 130.005 25.5723 128.022 25.8867L127.53 24.8613C129.82 24.5469 131.707 23.1934 131.755 21.6758H127.94V20.6367H137.019ZM148.913 21.0879V22.291C148.913 23.8086 148.913 25.5039 148.448 28.0059L147.136 27.8691C147.614 25.5039 147.614 23.7676 147.614 22.291V22.1406H140.177V21.0879H148.913ZM150.171 29.4277V30.5078H139.001V29.4277H143.253V25.1074H144.538V29.4277H150.171ZM161.259 19.9258V26.7207H159.96V19.9258H161.259ZM155.558 21.5527C155.544 23.1797 156.733 24.6699 158.606 25.2441L157.978 26.2695C156.535 25.8047 155.462 24.8408 154.901 23.5898C154.348 24.9365 153.254 25.9961 151.784 26.4883L151.142 25.4629C153.056 24.834 154.231 23.248 154.231 21.5527V20.3633H155.558V21.5527ZM161.341 27.3906V28.4297H159.728V30.959H161.464V32.0117H152.933V30.959H154.683V28.4297H153.042V27.3906H161.341ZM155.968 30.959H158.442V28.4297H155.968V30.959ZM174.37 26.3105V27.3496H163.2V26.3105H174.37ZM173.112 30.8496V31.9023H164.608V28.3477H165.921V30.8496H173.112ZM168.778 20.3223C171.431 20.3086 173.153 21.2383 173.153 22.7695C173.153 24.3145 171.431 25.2441 168.778 25.2578C166.112 25.2441 164.403 24.3145 164.403 22.7695C164.403 21.2383 166.112 20.3086 168.778 20.3223ZM168.778 21.3613C166.905 21.3613 165.729 21.8945 165.743 22.7695C165.729 23.6719 166.905 24.1914 168.778 24.1914C170.651 24.1914 171.813 23.6719 171.813 22.7695C171.813 21.8945 170.651 21.3613 168.778 21.3613ZM61.2764 38.9121V43.6562H63.2451V44.7227H61.2764V51.1895H59.9775V38.9121H61.2764ZM57.9814 40.0879V41.1406H53.5518V47.0605C55.6094 47.0537 57.1543 46.9648 58.8975 46.6504L59.0615 47.7441C57.1475 48.0859 55.5205 48.1543 53.2373 48.1406H52.2529V40.0879H57.9814ZM75.1943 40.6484V41.7148H73.458V43.2734H75.1943V44.3535H73.458V46.1445H72.1592V38.9121H73.458V40.6484H75.1943ZM67.2783 39.623C69.1514 39.623 70.5322 40.8125 70.5459 42.5352C70.5322 44.2441 69.1514 45.4336 67.2783 45.4473C65.4053 45.4336 64.0107 44.2441 64.0244 42.5352C64.0107 40.8125 65.4053 39.623 67.2783 39.623ZM67.2783 40.7168C66.1299 40.7168 65.2822 41.4551 65.2959 42.5352C65.2822 43.6289 66.1299 44.3398 67.2783 44.3535C68.4268 44.3398 69.2744 43.6289 69.2744 42.5352C69.2744 41.4551 68.4268 40.7168 67.2783 40.7168ZM69.5068 46.4727C72.0088 46.4727 73.5674 47.334 73.5674 48.8105C73.5674 50.2734 72.0088 51.1484 69.5068 51.1348C66.9775 51.1484 65.3916 50.2734 65.3916 48.8105C65.3916 47.334 66.9775 46.4727 69.5068 46.4727ZM69.5068 47.5254C67.7295 47.5254 66.6768 47.9902 66.6904 48.8105C66.6768 49.6445 67.7295 50.0957 69.5068 50.0957C71.2705 50.0957 72.2959 49.6445 72.2959 48.8105C72.2959 47.9902 71.2705 47.5254 69.5068 47.5254ZM85.5576 38.9258V42.8633H87.335V43.9434H85.5576V48.0859H84.2588V38.9258H85.5576ZM83.2471 40.3477V41.4004H75.9463V40.3477H78.9541V38.9121H80.2529V40.3477H83.2471ZM79.5967 41.9883C81.3604 41.9883 82.5635 42.9043 82.5635 44.2988C82.5635 45.6934 81.3604 46.5957 79.5967 46.5957C77.8193 46.5957 76.6162 45.6934 76.6162 44.2988C76.6162 42.9043 77.8193 41.9883 79.5967 41.9883ZM79.5967 42.9863C78.5576 42.9863 77.8604 43.4922 77.874 44.2988C77.8604 45.0918 78.5576 45.584 79.5967 45.584C80.6357 45.584 81.333 45.0918 81.3467 44.2988C81.333 43.4922 80.6357 42.9863 79.5967 42.9863ZM86.0771 49.8496V50.9023H77.792V47.3613H79.0908V49.8496H86.0771ZM101.335 40.0469V41.1953C101.321 42.6855 101.335 44.3809 100.815 46.9238L99.5439 46.7871C99.7695 45.7412 99.8994 44.8184 99.9678 43.9844L92.5986 44.4219L92.4072 43.3008L100.036 43C100.063 42.3438 100.063 41.749 100.063 41.1953V41.1133H92.7764V40.0469H101.335ZM102.62 48.4961V49.5762H91.4502V48.4961H95.7021V45.3926H96.9873V48.4961H102.62ZM109.771 40.6484C109.771 42.6445 111.903 44.5312 114.255 44.9551L113.653 46.0352C111.698 45.6113 109.894 44.3262 109.101 42.6035C108.294 44.3125 106.496 45.5977 104.534 46.0352L103.96 44.9551C106.284 44.5176 108.403 42.6445 108.403 40.6484V39.7188H109.771V40.6484ZM114.761 48.4688V49.5488H103.55V48.4688H114.761ZM126.847 44.5312V45.5293H115.636V44.5312H126.847ZM125.466 46.3906V49.084H118.274V50.0957H125.849V51.0117H116.976V48.2227H124.181V47.3203H116.962V46.3906H125.466ZM125.438 39.2266V41.8789H118.356V42.8086H125.644V43.7246H117.071V41.0176H124.14V40.1426H117.044V39.2266H125.438ZM142.337 46.2949V47.3613H137.388V51.1758H136.103V47.3613H131.167V46.2949H142.337ZM141.271 40.3887V41.4414H137.401C137.477 42.7949 139.322 44.1143 141.653 44.4082L141.188 45.4473C139.22 45.1738 137.545 44.251 136.759 43C135.959 44.2646 134.271 45.1738 132.302 45.4473L131.823 44.4082C134.154 44.1143 136.014 42.8223 136.103 41.4414H132.22V40.3887H136.103V38.9121H137.388V40.3887H141.271ZM152.81 38.9121V43.793H154.71V44.873H152.81V51.1484H151.511V38.9121H152.81ZM149.61 40.1973C149.597 43.7383 148.038 46.8965 144.005 48.8926L143.28 47.8809C146.35 46.3496 148.018 44.1348 148.284 41.2773H143.896V40.1973H149.61ZM161.423 40.9355V41.9883H155.339V40.9355H157.745V39.2676H159.03V40.9355H161.423ZM158.388 42.7266C159.946 42.7266 161.04 43.8887 161.054 45.543C161.04 47.2109 159.946 48.3867 158.388 48.3867C156.856 48.3867 155.722 47.2109 155.735 45.543C155.722 43.8887 156.856 42.7266 158.388 42.7266ZM158.388 43.8066C157.499 43.8066 156.884 44.5312 156.884 45.543C156.884 46.582 157.499 47.2793 158.388 47.2793C159.263 47.2793 159.905 46.582 159.905 45.543C159.905 44.5312 159.263 43.8066 158.388 43.8066ZM165.853 38.9121V51.1621H164.622V45.0781H163.214V50.5879H161.983V39.1855H163.214V44.0117H164.622V38.9121H165.853ZM173.632 39.1035V40.1699H179.306V39.1035H180.604V43.1641H177.077V44.2305H182.054V45.2695H170.884V44.2305H175.806V43.1641H172.347V39.1035H173.632ZM173.632 42.1797H179.306V41.127H173.632V42.1797ZM180.646 46.1582V49.0156H173.509V50.041H180.987V51.0391H172.237V48.0859H179.36V47.1289H172.224V46.1582H180.646ZM192.718 38.9121V43.8887H194.495V44.9551H192.718V51.1621H191.419V38.9121H192.718ZM186.675 40.2246C186.675 43.2871 186.114 46.0762 183.899 48.4414L182.874 47.7168C184.665 45.8574 185.314 43.7451 185.444 41.291H183.312V40.2246H186.675ZM190.052 40.2246C190.052 43.3281 189.669 46.582 187.413 49.248L186.374 48.5371C188.192 46.4111 188.739 43.9092 188.835 41.291H187.071V40.2246H190.052ZM206.294 48.5508V49.6309H195.083V48.5508H197.763V45.3516C196.758 44.7979 196.149 43.916 196.149 42.8223C196.149 40.8945 198.036 39.623 200.661 39.623C203.3 39.623 205.187 40.8945 205.187 42.8223C205.187 43.9023 204.599 44.7705 203.614 45.3242V48.5508H206.294ZM200.661 40.6621C198.733 40.6621 197.407 41.4961 197.407 42.8223C197.407 44.1348 198.733 44.9961 200.661 44.9961C202.575 44.9961 203.929 44.1348 203.929 42.8223C203.929 41.4961 202.575 40.6621 200.661 40.6621ZM199.048 48.5508H202.302V45.8164C201.803 45.9463 201.249 46.0078 200.661 46.0078C200.087 46.0078 199.54 45.9463 199.048 45.8301V48.5508ZM209.192 47.0605C209.206 45.2695 209.739 44.7227 210.642 44.1621C211.216 43.8066 211.653 43.3145 211.653 42.5898C211.653 41.7285 210.997 41.1953 210.177 41.1953C209.438 41.1953 208.728 41.6465 208.659 42.6582H207.183C207.237 40.9219 208.55 39.9648 210.177 39.9648C211.954 39.9648 213.144 41.0312 213.144 42.5898C213.144 43.6836 212.624 44.4219 211.749 44.9551C210.929 45.4473 210.614 45.9531 210.587 47.0605V47.1426H209.192V47.0605ZM209.944 50.0957C209.411 50.0957 208.96 49.6582 208.974 49.125C208.96 48.5918 209.411 48.1543 209.944 48.1543C210.464 48.1543 210.915 48.5918 210.915 49.125C210.915 49.6582 210.464 50.0957 209.944 50.0957Z" fill="#111111"/>
<path d="M130.118 85.079L121.375 66.8655C120.738 65.5378 121.706 64 123.178 64H139.935C141.379 64 142.347 65.4837 141.766 66.8055L133.752 85.0191C133.063 86.5832 130.857 86.6196 130.118 85.079Z" fill="#C5F598"/>
</svg>
