<svg width="212" height="78" viewBox="0 0 212 78" fill="none" xmlns="http://www.w3.org/2000/svg">
<mask id="path-1-inside-1_1030_3813" fill="white">
<path d="M200 0C206.627 1.80392e-06 212 5.37258 212 12V55C212 61.6274 206.627 67 200 67H113.506L107.732 77C106.963 78.3333 105.037 78.3333 104.268 77L98.4941 67H12C5.37258 67 0 61.6274 0 55V12C0 5.37258 5.37258 9.66386e-08 12 0H200Z"/>
</mask>
<path d="M200 0C206.627 1.80392e-06 212 5.37258 212 12V55C212 61.6274 206.627 67 200 67H113.506L107.732 77C106.963 78.3333 105.037 78.3333 104.268 77L98.4941 67H12C5.37258 67 0 61.6274 0 55V12C0 5.37258 5.37258 9.66386e-08 12 0H200Z" fill="#C5F598"/>
<path d="M200 0V-1V-1V0ZM200 67V68V68V67ZM113.506 67V66H112.929L112.64 66.5L113.506 67ZM107.732 77L108.598 77.5V77.5L107.732 77ZM104.268 77L103.402 77.5V77.5L104.268 77ZM98.4941 67L99.3602 66.5L99.0715 66H98.4941V67ZM12 67V68V68V67ZM12 0V-1V-1V0ZM200 0V1C206.075 1 211 5.92487 211 12H212H213C213 4.8203 207.18 -0.999998 200 -1V0ZM212 12H211V55H212H213V12H212ZM212 55H211C211 61.0751 206.075 66 200 66V67V68C207.18 68 213 62.1797 213 55H212ZM200 67V66H113.506V67V68H200V67ZM113.506 67L112.64 66.5L106.866 76.5L107.732 77L108.598 77.5L114.372 67.5L113.506 67ZM107.732 77L106.866 76.5C106.481 77.1667 105.519 77.1667 105.134 76.5L104.268 77L103.402 77.5C104.556 79.5 107.444 79.5 108.598 77.5L107.732 77ZM104.268 77L105.134 76.5L99.3602 66.5L98.4941 67L97.6281 67.5L103.402 77.5L104.268 77ZM98.4941 67V66H12V67V68H98.4941V67ZM12 67V66C5.92487 66 1 61.0751 1 55H0H-1C-1 62.1797 4.8203 68 12 68V67ZM0 55H1V12H0H-1V55H0ZM0 12H1C1 5.92487 5.92487 1 12 1V0V-1C4.8203 -1 -1 4.8203 -1 12H0ZM12 0V1H200V0V-1H12V0Z" fill="black" mask="url(#path-1-inside-1_1030_3813)"/>
</svg>
